<svg xmlns="http://www.w3.org/2000/svg" data-name="Layer 1" width="534.67004" height="589.09463" viewBox="0 0 534.67004 589.09463" xmlns:xlink="http://www.w3.org/1999/xlink"><path d="M557.6592,428.75759a127,127,0,1,1,127-127A127.1441,127.1441,0,0,1,557.6592,428.75759Zm0-252a125,125,0,1,0,125,125A125.1415,125.1415,0,0,0,557.6592,176.75759Z" transform="translate(-332.66498 -155.45269)" fill="#f2f2f2"/><path d="M567.35055,329.54731h81.4331a1,1,0,0,0,0-2h-81.4331a1,1,0,0,0,0,2Z" transform="translate(-332.66498 -155.45269)" fill="#3f3d56"/><path d="M669.07292,326.54731a25.66668,25.66668,0,0,0-25.6377,25.6377V460.90962a25.66667,25.66667,0,0,0,25.6377,25.63769H837.79753a25.66666,25.66666,0,0,0,25.63769-25.63769V352.185a25.66667,25.66667,0,0,0-25.63769-25.6377Z" transform="translate(-332.66498 -155.45269)" fill="#fff"/><path d="M837.79753,487.54731H669.07292a26.668,26.668,0,0,1-26.6377-26.63769V352.185a26.668,26.668,0,0,1,26.6377-26.6377H837.79753a26.668,26.668,0,0,1,26.63769,26.6377V460.90962A26.668,26.668,0,0,1,837.79753,487.54731Zm-168.72461-160a24.66538,24.66538,0,0,0-24.6377,24.6377V460.90962a24.66537,24.66537,0,0,0,24.6377,24.63769H837.79753a24.66536,24.66536,0,0,0,24.63769-24.63769V352.185a24.66537,24.66537,0,0,0-24.63769-24.6377Z" transform="translate(-332.66498 -155.45269)" fill="#3f3d56"/><path d="M564.4581,320.18624a9.82836,9.82836,0,0,0-8.04356,11.10056,9.42813,9.42813,0,0,0,.37533,1.51286l-50.30634,44.33588,18.63388,13.052,44.4592-51.79038a9.80111,9.80111,0,0,0,5.85205-10.437,9.37962,9.37962,0,0,0-10.7166-7.81726Q564.58479,320.16285,564.4581,320.18624Z" transform="translate(-332.66498 -155.45269)" fill="#a0616a"/><path d="M545.37522,370.35731s-11.35,13.07-25.17,27.87c-.96,1.02-1.92,2.05-2.91,3.09-8.4,8.9-17.45,18.14-25.3,25.31-8.37,7.67-15.38,13.01-18.78,13.14a2.46622,2.46622,0,0,1-.84-.09c-10.17-3.06-1.79.58-6.14,6.79-4.37,6.22-3.83-1.94-13.62-6.79-9.77-4.85-4.57-.03-8.47,7.63-1.21,2.4-11.83,1.91-25.83.11-1.58-13.35-3.88-24.87-3.88-24.87a113.61882,113.61882,0,0,1,2.44-23.83c24.39-.44,44.56-.69,45.59-.37,2.66.81,8.37995-1.24,14.7-4.81.9-.51,2.6-1.69,4.85-3.35,1.99-1.46,4.38995-3.28,7.06-5.32,3-2.32,8.11-3.59,9.77-7.63,4.82-11.66,3.17-2.96,4.46-3.5,1.47-.62,4.07-.86005,5.59-1.75a2.00966,2.00966,0,0,0,1.17-2.21,4.06716,4.06716,0,0,0-.38-1.09c-1.38-2.77.72-3.04,2.7-3.33a5.1401,5.1401,0,0,0,2.33-.69c7.95-6.34,13.97-11.21,13.97-11.21l2.16,2.2.01.01,12.78,12.94Z" transform="translate(-332.66498 -155.45269)" fill="#3f3d56"/><path d="M534.47262,743.31981H408.09469c-5.40967,0-9.811-5.5561-9.811-12.38441V596.64731c0-6.82832,4.40137-12.38441,9.811-12.38441H534.47262c5.40967,0,9.811,5.55609,9.811,12.38441V730.9354C544.28365,737.76371,539.88229,743.31981,534.47262,743.31981Z" transform="translate(-332.66498 -155.45269)" fill="#f2f2f2"/><path d="M332.665,743.04511a1.36951,1.36951,0,0,0,1.19006,1.5022h532.29a1.54316,1.54316,0,0,0,0-3.00441H333.855A1.36957,1.36957,0,0,0,332.665,743.04511Z" transform="translate(-332.66498 -155.45269)" fill="#ccc"/><polygon points="289.565 569.244 302.306 569.243 308.368 520.095 289.562 520.096 289.565 569.244" fill="#a0616a"/><path d="M621.78091,737.98924l39.18343-.00147v-.49554a15.25211,15.25211,0,0,0-15.25128-15.251h-.00095l-7.15735-5.42995L625.20071,722.242l-3.42045.00012Z" transform="translate(-332.66498 -155.45269)" fill="#2f2e41"/><polygon points="210.422 563.385 222.687 566.837 241.843 521.171 223.74 516.075 210.422 563.385" fill="#a0616a"/><path d="M539.05249,731.511l37.71728,10.61828.1343-.477a15.25211,15.25211,0,0,0-10.547-18.81371l-.00091-.00026-5.41782-7.16654L546.6122,717.28l-3.29246-.92692Z" transform="translate(-332.66498 -155.45269)" fill="#2f2e41"/><path d="M510.43522,509.54731s-4.07984-.40617,6.38019,3.21383c11.32,3.93,28.5,3.42,44.95,9.32,5.08,1.82,10.23,3.68,15.34,5.54,1.03.37,2.06.75,3.09,1.12,6.65,2.43,13.19,4.86005,19.37,7.18.87.33,1.73.66,2.57995.98.02.01.04.01.05005.02,20.15,7.66,36,14.22,38.62,16.84,2.8,2.8,3.96,21.72,4.28,45.1.58,43.33-1.71,101.99006-1.71,101.99006l-23.57-.09s-.15-.52-.44-1.49c-.52-1.79-1.49-5.12-2.78-9.47-5.36-18.17-16.15-54.18-22.11-70.67-1.68-4.66-2.98-7.76-3.67-8.46-4-4.1,0-5.91,4-8.51s0-3.4-2.94-6.8c-2.94-3.4,1.1-11.06,1.1-11.06s-2.66-.07-6.9-.18c-6.26-.16-16-.4-25.75-.64-.01.01-.01.01-.01,0-3.67005-.09-7.34-.18-10.82-.25995-2.7-.07-5.29-.13-7.69-.19-7.19-.16-12.63-.27-13.99-.27-4.44,0-.99,0-3.67005-3.51a15.67531,15.67531,0,0,0-1.32995-1.49,17.32153,17.32153,0,0,0-2.2-2.06c-.56-.26.2,1.35-.22,3.44a6.31656,6.31656,0,0,1-1.55,3.03c-3.97,4.41-16.15-.35-16.15-.35-20.04,10.02-36.48,9.3-49.14,4.61a63.00711,63.00711,0,0,1-23.83-16.26,59.50548,59.50548,0,0,1-6.98-8.9l-1.65-.31s-2.22015-74.38387.33985-79.41384c3.99-7.84,63-2,63-2Z" transform="translate(-332.66498 -155.45269)" fill="#2f2e41"/><path d="M620.35055,208.54731h81.4331a1,1,0,0,0,0-2h-81.4331a1,1,0,0,0,0,2Z" transform="translate(-332.66498 -155.45269)" fill="#3f3d56"/><path d="M730.60194,288.07449c-16.51077-21.96123-26.0537-46.51942-26.36641-74.51776a6.04124,6.04124,0,0,1,3.67595-7.70164l56.27746-19.91249a6.0412,6.0412,0,0,1,7.7016,3.676L798.257,264.13633A6.04121,6.04121,0,0,1,794.581,271.838l-56.27746,19.91249A6.04122,6.04122,0,0,1,730.60194,288.07449Z" transform="translate(-332.66498 -155.45269)" fill="#e6e6e6"/><path d="M726.955,264.03961c-9.93022-10.04034-14.1809-27.94789-16.95072-47.90679a5.65768,5.65768,0,0,1,3.44264-7.21282l48.36574-17.1131a5.65791,5.65791,0,0,1,7.21308,3.44253l23.46251,66.31068a5.65792,5.65792,0,0,1-3.4429,7.21291l-29.96157,10.60121A25.202,25.202,0,0,1,726.955,264.03961Z" transform="translate(-332.66498 -155.45269)" fill="#fff"/><path d="M769.67316,230.97131,731.99758,244.4196a2.40023,2.40023,0,1,1-1.6138-4.52107l37.67558-13.44829a2.40023,2.40023,0,1,1,1.6138,4.52107Z" transform="translate(-332.66498 -155.45269)" fill="#3371fc"/><path d="M735.86112,229.064l-8.28863,2.95862a2.40023,2.40023,0,0,1-1.61379-4.52107l8.28862-2.95862a2.40023,2.40023,0,1,1,1.6138,4.52107Z" transform="translate(-332.66498 -155.45269)" fill="#3371fc"/><path d="M776.76782,250.84712,739.09224,264.2954a2.40023,2.40023,0,0,1-1.6138-4.52107L775.154,246.32605a2.40023,2.40023,0,1,1,1.61379,4.52107Z" transform="translate(-332.66498 -155.45269)" fill="#3371fc"/><path d="M773.22049,240.90921,735.54491,254.3575a2.40023,2.40023,0,0,1-1.6138-4.52107l37.67559-13.44829a2.40023,2.40023,0,0,1,1.61379,4.52107Z" transform="translate(-332.66498 -155.45269)" fill="#3371fc"/><circle cx="374.77024" cy="56.09463" r="10" fill="#3371fc"/><path d="M526.5199,189.54731H445.08679a1,1,0,0,1,0-2H526.5199a1,1,0,0,1,0,2Z" transform="translate(-332.66498 -155.45269)" fill="#3f3d56"/><path d="M339.78045,225.01879c7.07238-26.54962,20.491-49.22368,42.31642-66.76381a6.04125,6.04125,0,0,1,8.32734-1.86634l50.4215,31.9583a6.04122,6.04122,0,0,1,1.86632,8.32732l-42.31643,66.7638a6.04122,6.04122,0,0,1-8.32731,1.86637l-50.42149-31.9583A6.04123,6.04123,0,0,1,339.78045,225.01879Z" transform="translate(-332.66498 -155.45269)" fill="#e6e6e6"/><path d="M356.42942,207.30473c1.76221-14.01115,13.21955-28.41523,27.20484-42.92183a5.65767,5.65767,0,0,1,7.7988-1.74789l43.333,27.46547a5.65791,5.65791,0,0,1,1.74813,7.79895l-37.65586,59.4107a5.65791,5.65791,0,0,1-7.799,1.74774l-26.84391-17.01429A25.202,25.202,0,0,1,356.42942,207.30473Z" transform="translate(-332.66498 -155.45269)" fill="#fff"/><path d="M408.82156,220.47349,374.9738,199.15131a2.40023,2.40023,0,0,1,2.55866-4.06173l33.84776,21.32218a2.40023,2.40023,0,1,1-2.55866,4.06173Z" transform="translate(-332.66498 -155.45269)" fill="#3371fc"/><path d="M389.43625,192.70477l-7.4465-4.69088a2.40023,2.40023,0,1,1,2.55866-4.06173l7.4465,4.69088a2.40023,2.40023,0,1,1-2.55866,4.06173Z" transform="translate(-332.66498 -155.45269)" fill="#3371fc"/><path d="M397.573,238.32992l-33.84776-21.32217a2.40023,2.40023,0,1,1,2.55866-4.06173l33.84776,21.32217a2.40023,2.40023,0,0,1-2.55866,4.06173Z" transform="translate(-332.66498 -155.45269)" fill="#3371fc"/><path d="M403.19729,229.40171l-33.84776-21.32218a2.40023,2.40023,0,1,1,2.55866-4.06173L405.756,225.34a2.40023,2.40023,0,0,1-2.55866,4.06174Z" transform="translate(-332.66498 -155.45269)" fill="#3371fc"/><circle cx="106.77024" cy="37.09463" r="10" fill="#3371fc"/><circle cx="321.77024" cy="177.09463" r="10" fill="#3371fc"/><path d="M607.62368,582.43c-4.17,22.72-21.84,75.97-32.52,107.14-4.87,14.24-5.27,8.87994-5.27,8.87994l-5.55-1.75-9.36-2.96-3.42005-1.08-4.13995-1.31s-2.03-36.22-2.68-63.39c-.22-8.76-.6-15.02-1.23-16.26-2.6-5.1,1.75-5.63995,6.34-6.93,4.6-1.29,1.01-3.23-.78-7.37-1.21-2.76,1.17-6.43,2.86005-8.53a20.69953,20.69953,0,0,1,1.49-1.69s-11.7-3.98-24.93-8.47c-.01.01-.01,0-.01,0-1.33-.45-2.67005-.9-4.01-1.36,4.66-1.68,7.76-2.98,8.46-3.67,4.1-4,5.91,0,8.51,4s3.4,0,6.8-2.94c3.4-2.94,11.06,1.1,11.06,1.1s.07-2.66.18-6.9c.16-6.26.4-16,.64-25.75-.01-.01-.01-.01,0-.01.09-3.67.18-7.34.26-10.82,7.05005,5.4,13.89,10.7,20.09,15.6.01.01.03.02.03.04,14.91,11.78,26.1,21.24,27.67,24.24C608.82363,573.6,608.58364,577.21,607.62368,582.43Z" transform="translate(-332.66498 -155.45269)" fill="#2f2e41"/><path d="M511.43522,497.54731l-3.68,2.39-9.42,6.12-12.78,8.29-68.12,44.2s-8.42-17.16-.71-32.08a33.02251,33.02251,0,0,0,2.41-5.91c3.12-10.7-2.88-15.34-2.88-15.34s-10-9.73-.41-18.7c1.97-1.84,3.07-5.61,3.57-10.45.84-7.96.07-18.8-1.1-28.65-1.58-13.35-3.88-24.87-3.88-24.87a113.61882,113.61882,0,0,1,2.44-23.83c1.83-8.44,4.77-16.46,9.12-23.12a43.97881,43.97881,0,0,1,5.49-6.88,35.55217,35.55217,0,0,1,9.95-7.17c5.56-2.68,15.09-1.07,23.49.1,1.69.23,3.33.45,4.88.61a43.67789,43.67789,0,0,0,4.63.29l3.48,12.7,1.32,4.81.66,2.41,1.5,5.48.62,2.24,9.98,36.43994,8.15,29.72,4.5,16.42,6.73,24.55Z" transform="translate(-332.66498 -155.45269)" fill="#3f3d56"/><circle cx="123.01832" cy="167.99466" r="30.35523" fill="#a0616a"/><path d="M449.99718,348.53871l-2.47262,7.90627c-5.48267-2.70663-11.039-5.46224-15.60428-9.52964s-8.09625-9.68028-8.31239-15.79083c-.11164-3.15584.65255-6.33937.12819-9.45335-.59251-3.51868-2.76431-6.56907-3.75846-9.996a15.94481,15.94481,0,0,1,8.60174-18.40534c5.03174-2.21135,10.78558-1.59063,16.25576-2.12508s11.57219-3.009,13.11186-8.28515c.57567-1.9727.5097-4.29864,2.27191-5.59028a4.312,4.312,0,0,1,5.70961.82548c2.57614,2.92481,1.942,6.77622,1.26729,10.27775a25.67949,25.67949,0,0,0,17.75181-10.79259,9.94821,9.94821,0,0,1,.39383,14.13311,7.6722,7.6722,0,0,0,7.46479-5.88708c2.09487,2.89341,4.24492,5.91085,4.91846,9.41893s-.57661,7.6572-3.79381,9.20958a12.32659,12.32659,0,0,1-5.16761.84613l-13.48739.25626a15.44769,15.44769,0,0,0-15.15295,15.24474v0c-3.92392-.377-7.96537-.74569-11.67586.90685a8.96126,8.96126,0,0,0-4.1646,3.57853c-2.45221,4.21226-.01934,8.59023,2.1369,12.42153,1.84317,3.275,3.59053,7.219,2.061,10.65172" transform="translate(-332.66498 -155.45269)" fill="#2f2e41"/><path d="M588.56687,656.75044,532.28941,636.838a6.04121,6.04121,0,0,1-3.67591-7.70162l26.3664-74.51778a6.04121,6.04121,0,0,1,7.7016-3.676L618.959,570.85509a6.04125,6.04125,0,0,1,3.67595,7.70164c-.31272,27.99834-9.85565,52.55653-26.36641,74.51776A6.04122,6.04122,0,0,1,588.56687,656.75044Z" transform="translate(-332.66498 -155.45269)" fill="#e6e6e6"/><path d="M567.78666,644.37423,537.82508,633.773a5.65792,5.65792,0,0,1-3.4429-7.21291l23.46252-66.31068a5.65791,5.65791,0,0,1,7.21308-3.44253L613.42352,573.92a5.65769,5.65769,0,0,1,3.44264,7.21282c-2.76983,19.9589-7.02051,37.86645-16.95073,47.90679A25.20194,25.20194,0,0,1,567.78666,644.37423Z" transform="translate(-332.66498 -155.45269)" fill="#fff"/><path d="M555.74365,592.90388a2.403,2.403,0,0,1,3.06743-1.45364l37.67558,13.44829a2.40023,2.40023,0,1,1-1.61379,4.52107l-37.67558-13.44829A2.403,2.403,0,0,1,555.74365,592.90388Z" transform="translate(-332.66498 -155.45269)" fill="#3371fc"/><path d="M589.55569,590.9966a2.403,2.403,0,0,1,3.06743-1.45364l8.28863,2.95862a2.40023,2.40023,0,1,1-1.6138,4.52107l-8.28862-2.95862A2.403,2.403,0,0,1,589.55569,590.9966Z" transform="translate(-332.66498 -155.45269)" fill="#3371fc"/><path d="M548.649,612.77969a2.403,2.403,0,0,1,3.06743-1.45364L589.392,624.77433a2.40023,2.40023,0,1,1-1.61379,4.52107l-37.67559-13.44828A2.403,2.403,0,0,1,548.649,612.77969Z" transform="translate(-332.66498 -155.45269)" fill="#3371fc"/><path d="M552.19632,602.84178a2.403,2.403,0,0,1,3.06743-1.45364l37.67558,13.44829a2.40023,2.40023,0,1,1-1.61379,4.52107L553.65,605.90921A2.403,2.403,0,0,1,552.19632,602.84178Z" transform="translate(-332.66498 -155.45269)" fill="#3371fc"/><path d="M571.50741,552.027a9.82838,9.82838,0,0,0-11.93934-6.736,9.429,9.429,0,0,0-1.46068.54408l-49.74287-44.96715-10.86,19.99094,56.488,38.31415a9.80113,9.80113,0,0,0,11.03209,4.63364,9.37963,9.37963,0,0,0,6.55459-11.53224Q571.545,552.15021,571.50741,552.027Z" transform="translate(-332.66498 -155.45269)" fill="#a0616a"/><path d="M534.39524,520.24733l-1.94,2.4-11.42,14.17-1.54,1.92s-16.31-11.2-33.94-24.39c-21.16-15.85-44.22-34.58-43.19-40.29,1.89-10.45-.78-1.72-7.45-5.34-6.66-3.63,1.5-4.02,5.21-14.29,3.72-10.26-.48-4.55-8.53-7.55-5.37-2-2.56-47.87994-.11-78.16a35.55217,35.55217,0,0,1,9.95-7.17c6.67-3.22,19.08-.25,28.37.71,5.26,38.77,12.85,95.48,12.51,97.27-.52,2.73,2.18,8.18,6.44,14.06,2,2.78,12.31,13.35,22.62,23.73C522.87522,508.89729,534.39524,520.24733,534.39524,520.24733Z" transform="translate(-332.66498 -155.45269)" fill="#3f3d56"/><path d="M779.57548,377.51937H673.69881a2.28324,2.28324,0,1,1,0-4.56647H779.57548a2.28324,2.28324,0,0,1,0,4.56647Z" transform="translate(-332.66498 -155.45269)" fill="#3371fc"/><path d="M833.17212,398.39349H673.69881a2.28324,2.28324,0,1,1,0-4.56647H833.17212a2.28324,2.28324,0,0,1,0,4.56647Z" transform="translate(-332.66498 -155.45269)" fill="#f2f2f2"/><path d="M833.17521,414.69771h-159.48a2.285,2.285,0,0,0,0,4.57h159.48a2.285,2.285,0,0,0,0-4.57Z" transform="translate(-332.66498 -155.45269)" fill="#f2f2f2"/><path d="M833.17212,440.14173H673.69881a2.28324,2.28324,0,1,1,0-4.56647H833.17212a2.28324,2.28324,0,0,1,0,4.56647Z" transform="translate(-332.66498 -155.45269)" fill="#f2f2f2"/></svg>