<?xml version="1.0" encoding="UTF-8"?>
<svg width="72px" height="72px" viewBox="0 0 72 72" version="1.1" xmlns="http://www.w3.org/2000/svg" xmlns:xlink="http://www.w3.org/1999/xlink">
    <title>LOGO-Alpha</title>
    <g id="Symbols" stroke="none" stroke-width="1" fill="none" fill-rule="evenodd">
        <g id="LOGO-Alpha" fill-rule="nonzero">
            <g>
                <rect id="Rectangle" fill="#000000" opacity="0" x="0" y="0" width="72" height="72"></rect>
                <path d="M53.4075469,54.6265023 C51.0818629,56.9701458 48.3754867,58.81158 45.3645565,60.0950038 C42.6097285,61.2668256 39.7026235,61.9294629 36.7055368,62.0689655 C36.463278,61.9992142 36.2071759,61.9573634 35.9441521,61.9573634 C29.7630933,61.9085375 24.7794848,56.8027427 24.8275862,50.573952 C24.8487016,47.881552 25.8661883,45.244953 27.6312163,43.2221654 C29.4100877,41.1784524 31.8257535,39.9368794 34.4421479,39.539297 C34.9266654,39.4695457 35.4181046,39.4207198 35.9095437,39.4067695 C37.1346808,39.3718939 38.3667396,39.323068 39.5711117,39.0649882 C41.0661942,38.7441322 42.5197467,38.2140224 43.8763957,37.495584 C45.3437915,36.7143695 46.6935188,35.716926 47.8771258,34.5451042 C51.0887846,31.35747 52.8814993,27.102641 52.9161077,22.5548565 C52.9299511,20.7761984 52.673849,19.0324161 52.1685665,17.3793103 C52.5977105,17.7559673 53.0130112,18.1465746 53.4144686,18.5511321 C55.7401525,20.8947756 57.5674757,23.6220513 58.8410645,26.6562327 C60.1561834,29.795041 60.8275862,33.136128 60.8275862,36.5818421 C60.8275862,40.0275561 60.1561834,43.3686431 58.8410645,46.5074514 C57.5536323,49.5555831 55.7332309,52.2828587 53.4075469,54.6265023 L53.4075469,54.6265023 Z" id="Path" fill="#6694FF"></path>
                <path d="M13.1702074,47.3629488 C11.8476263,44.223677 11.1724138,40.8820966 11.1724138,37.4358738 C11.1724138,33.989651 11.8476263,30.6480706 13.1702074,27.5087988 C14.4510227,24.4741694 16.2887144,21.746491 18.6275946,19.4025014 C20.9664749,17.0585118 23.6882076,15.2168056 26.7162222,13.9331923 C29.8347293,12.607722 33.1551039,11.9380106 36.5798929,11.9310345 C36.7399948,11.9589391 36.9000967,11.9728914 37.0741206,11.9728914 L37.2342225,11.9728914 C40.2413542,11.9938199 43.0675012,13.1937194 45.17667,15.3423765 C47.2858389,17.4910336 48.4343961,20.3373067 48.4137931,23.3510077 C48.3926304,25.9670675 47.4459408,28.5273181 45.7613901,30.5294758 C44.0977223,32.503729 41.765803,33.8780324 39.232016,34.3593874 C37.7354111,34.6384338 36.2179233,34.4431014 34.7282793,34.6523861 C30.7466141,35.2244312 27.0781918,37.2056605 24.4121467,40.2472661 C21.7112969,43.3167763 20.207731,47.2652826 20.1729262,51.3602883 C20.1520434,53.620564 20.5766615,55.8250304 21.3910931,57.862069 C20.4235206,57.1365484 19.4977138,56.33429 18.6345556,55.4622701 C16.2887144,53.1252566 14.4510227,50.3975782 13.1702074,47.3629488 Z" id="Path" fill="#3370FF"></path>
            </g>
        </g>
    </g>
</svg>